<?xml version="1.0" encoding="UTF-8"?>
<svg width="64" height="64" viewBox="0 0 64 64" fill="none" xmlns="http://www.w3.org/2000/svg">
  <!-- Background circle -->
  <circle cx="32" cy="32" r="30" fill="#1a1a2e" stroke="#4ade80" stroke-width="2"/>
  
  <!-- MAFFENG text -->
  <text x="32" y="20" font-family="Arial, sans-serif" font-size="8" font-weight="bold" text-anchor="middle" fill="#4ade80">MAFFENG</text>
  
  <!-- Engineering symbol -->
  <g transform="translate(16, 24)">
    <!-- Gear icon -->
    <circle cx="16" cy="16" r="8" fill="none" stroke="#4ade80" stroke-width="2"/>
    <circle cx="16" cy="16" r="4" fill="none" stroke="#4ade80" stroke-width="1"/>
    
    <!-- Gear teeth -->
    <path d="M16 4 L18 8 L14 8 Z" fill="#4ade80"/>
    <path d="M28 16 L24 18 L24 14 Z" fill="#4ade80"/>
    <path d="M16 28 L14 24 L18 24 Z" fill="#4ade80"/>
    <path d="M4 16 L8 14 L8 18 Z" fill="#4ade80"/>
    
    <!-- Diagonal teeth -->
    <path d="M24.5 7.5 L22.5 10.5 L20.5 8.5 Z" fill="#4ade80"/>
    <path d="M24.5 24.5 L20.5 23.5 L22.5 21.5 Z" fill="#4ade80"/>
    <path d="M7.5 24.5 L10.5 21.5 L8.5 23.5 Z" fill="#4ade80"/>
    <path d="M7.5 7.5 L8.5 10.5 L10.5 8.5 Z" fill="#4ade80"/>
  </g>
  
  <!-- Subtitle -->
  <text x="32" y="52" font-family="Arial, sans-serif" font-size="5" text-anchor="middle" fill="#94a3b8">Engenharia</text>
</svg>